M48
;Layer_Color=9474304
;FILE_FORMAT=2:5
INCH,LZ
;TYPE=PLATED
T1F00S00C0.02362
T2F00S00C0.02500
T3F00S00C0.02559
T4F00S00C0.03150
T5F00S00C0.03500
T6F00S00C0.03543
T7F00S00C0.03937
T8F00S00C0.04331
T9F00S00C0.05906
T10F00S00C0.12598
%
T01
X01925Y01775
Y01825
Y01875
X01625Y02525
Y02625
X0205Y045
X021
X0215
X035Y03825
X036
T02
X0385Y01625
X0395
X0405
Y02025
X0395
X0385
X02075Y02325
X01975
X01875
X01775
X0175Y02125
Y01725
X01775Y02625
X01875
X01975
X02075
X021Y039
X02
Y043
X021
X035Y037
X036
X037
X038
X039
X04
X041
Y034
X04
X039
X038
X037
X036
X035
T03
X034Y041
Y042
X037Y043
Y044
T04
X025Y023
Y024
Y025
Y026
Y027
Y028
Y029
Y03
Y031
X031
Y03
Y029
Y028
Y027
Y026
Y025
Y024
Y023
Y032
Y033
Y034
Y035
Y036
Y037
Y038
Y039
Y04
Y041
Y042
X025
Y041
Y04
Y039
Y038
Y037
Y036
Y035
Y034
Y033
Y032
T05
X0225Y0425
T06
X03175Y016
X03275
X03375
X03475
X03575
Y02
X03475
X03375
X03275
X03175
X035Y022
Y023
Y024
Y025
Y026
Y027
Y028
Y029
Y03
Y031
X04
Y03
Y029
Y028
Y027
X044Y031
X03075Y02
X02975
X02875
Y016
X02975
X03075
X017Y029
Y03
Y031
Y032
Y033
Y035
Y036
Y037
Y038
Y039
Y04075
Y04175
Y04275
Y04375
X044Y04
Y039
Y038
Y037
Y035
Y034
Y033
Y032
T07
X0432Y01785
Y01885
Y01985
T08
X02325Y0165
Y0194921
T09
X04025Y04247
Y04403
T10
X016Y015
X045
X016Y046
X045
M30
