G04 Layer_Color=16711935*
%FSLAX25Y25*%
%MOIN*%
G70*
G01*
G75*
%ADD32C,0.18517*%
%ADD33C,0.10800*%
%ADD34R,0.10642X0.07099*%
%ADD35C,0.06800*%
%ADD36R,0.05800X0.10800*%
%ADD37O,0.05800X0.10800*%
%ADD38R,0.08800X0.06800*%
%ADD39O,0.06300X0.03800*%
%ADD40C,0.05800*%
%ADD41O,0.06800X0.10800*%
%ADD42R,0.06800X0.10800*%
%ADD43R,0.12611X0.12611*%
%ADD44C,0.12611*%
%ADD45R,0.06800X0.06800*%
%ADD46R,0.07800X0.07800*%
%ADD47O,0.03800X0.06300*%
D32*
X160000Y460000D02*
D03*
Y150000D02*
D03*
X450000D02*
D03*
Y460000D02*
D03*
D33*
X232500Y194921D02*
D03*
Y165000D02*
D03*
D34*
X440000Y310000D02*
D03*
Y320000D02*
D03*
Y330000D02*
D03*
Y340000D02*
D03*
Y350000D02*
D03*
X170000D02*
D03*
Y360000D02*
D03*
Y370000D02*
D03*
Y380000D02*
D03*
Y390000D02*
D03*
X400000Y270000D02*
D03*
Y280000D02*
D03*
Y290000D02*
D03*
Y300000D02*
D03*
Y310000D02*
D03*
X170000Y290000D02*
D03*
Y300000D02*
D03*
Y310000D02*
D03*
Y320000D02*
D03*
Y330000D02*
D03*
Y407500D02*
D03*
Y417500D02*
D03*
Y427500D02*
D03*
Y437500D02*
D03*
X440000Y370000D02*
D03*
Y380000D02*
D03*
Y390000D02*
D03*
Y400000D02*
D03*
X350000Y230000D02*
D03*
Y240000D02*
D03*
Y250000D02*
D03*
Y220000D02*
D03*
Y270000D02*
D03*
Y280000D02*
D03*
Y290000D02*
D03*
Y300000D02*
D03*
Y310000D02*
D03*
Y260000D02*
D03*
D35*
X370000Y430000D02*
D03*
Y440000D02*
D03*
X340000Y420000D02*
D03*
Y410000D02*
D03*
X360000Y382500D02*
D03*
X350000D02*
D03*
X162500Y252500D02*
D03*
Y262500D02*
D03*
D36*
X350000Y340000D02*
D03*
X177500Y232500D02*
D03*
D37*
X360000Y340000D02*
D03*
X370000D02*
D03*
X380000D02*
D03*
X410000D02*
D03*
X400000D02*
D03*
X390000D02*
D03*
X410000Y370000D02*
D03*
X400000D02*
D03*
X390000D02*
D03*
X380000D02*
D03*
X370000D02*
D03*
X360000D02*
D03*
X350000D02*
D03*
X207500Y262500D02*
D03*
X197500D02*
D03*
X187500D02*
D03*
X177500D02*
D03*
X207500Y232500D02*
D03*
X197500D02*
D03*
X187500D02*
D03*
D38*
X310000Y420000D02*
D03*
Y410000D02*
D03*
Y400000D02*
D03*
Y390000D02*
D03*
Y380000D02*
D03*
Y370000D02*
D03*
Y360000D02*
D03*
Y350000D02*
D03*
Y340000D02*
D03*
Y330000D02*
D03*
Y320000D02*
D03*
Y310000D02*
D03*
Y300000D02*
D03*
Y290000D02*
D03*
Y280000D02*
D03*
Y270000D02*
D03*
Y260000D02*
D03*
Y250000D02*
D03*
Y240000D02*
D03*
Y230000D02*
D03*
X250000D02*
D03*
Y240000D02*
D03*
Y250000D02*
D03*
Y260000D02*
D03*
Y270000D02*
D03*
Y280000D02*
D03*
Y290000D02*
D03*
Y300000D02*
D03*
Y310000D02*
D03*
Y320000D02*
D03*
Y330000D02*
D03*
Y340000D02*
D03*
Y350000D02*
D03*
Y360000D02*
D03*
Y370000D02*
D03*
Y380000D02*
D03*
Y390000D02*
D03*
Y400000D02*
D03*
Y410000D02*
D03*
Y420000D02*
D03*
D39*
X192500Y182500D02*
D03*
Y187500D02*
D03*
Y177500D02*
D03*
D40*
X175000Y172500D02*
D03*
Y212500D02*
D03*
X385000Y162500D02*
D03*
Y202500D02*
D03*
X395000Y162500D02*
D03*
Y202500D02*
D03*
X405000Y162500D02*
D03*
Y202500D02*
D03*
X200000Y430000D02*
D03*
Y390000D02*
D03*
X210000Y430000D02*
D03*
Y390000D02*
D03*
D41*
X357500Y200000D02*
D03*
X347500D02*
D03*
X337500D02*
D03*
X327500D02*
D03*
X317500D02*
D03*
X307500D02*
D03*
X297500D02*
D03*
X287500D02*
D03*
X357500Y160000D02*
D03*
X347500D02*
D03*
X337500D02*
D03*
X327500D02*
D03*
X317500D02*
D03*
X307500D02*
D03*
X297500D02*
D03*
D42*
X287500D02*
D03*
D43*
X402500Y440300D02*
D03*
D44*
Y424700D02*
D03*
D45*
X432000Y198500D02*
D03*
Y188500D02*
D03*
Y178500D02*
D03*
D46*
X225000Y425000D02*
D03*
D47*
X210000Y450000D02*
D03*
X215000D02*
D03*
X205000D02*
D03*
M02*
